<svg width="250" height="41" viewBox="0 0 250 41" fill="none" xmlns="http://www.w3.org/2000/svg">
<path d="M11.5679 37L1.59083 9.50409H6.67758L14.6318 31.4026L22.6056 9.50409H27.6727L17.6956 37H11.5679Z" fill="#ffff"/>
<path d="M47.856 37.5107C45.9967 37.5107 44.2488 37.144 42.6121 36.4108C40.9754 35.6645 39.5352 34.6367 38.2913 33.3273C37.0475 32.018 36.072 30.5057 35.365 28.7905C34.6579 27.0622 34.3044 25.2161 34.3044 23.2521C34.3044 21.2881 34.6579 19.4485 35.365 17.7332C36.072 16.0049 37.0475 14.4861 38.2913 13.1768C39.5352 11.8674 40.9754 10.8462 42.6121 10.1129C44.2488 9.36663 45.9967 8.99347 47.856 8.99347C49.7283 8.99347 51.4828 9.36663 53.1195 10.1129C54.7561 10.8462 56.1964 11.8674 57.4403 13.1768C58.6841 14.4861 59.653 16.0049 60.347 17.7332C61.054 19.4485 61.4075 21.2881 61.4075 23.2521C61.4075 25.2161 61.054 27.0622 60.347 28.7905C59.653 30.5057 58.6841 32.018 57.4403 33.3273C56.1964 34.6367 54.7561 35.6645 53.1195 36.4108C51.4828 37.144 49.7283 37.5107 47.856 37.5107ZM47.856 32.7185C49.0605 32.7185 50.1931 32.4697 51.2537 31.9722C52.3142 31.4746 53.2439 30.7938 54.0425 29.9296C54.8543 29.0524 55.4828 28.0442 55.928 26.9051C56.3862 25.766 56.6154 24.5483 56.6154 23.2521C56.6154 21.9558 56.3862 20.7382 55.928 19.599C55.4697 18.4468 54.8347 17.4386 54.0229 16.5745C53.2242 15.7103 52.2946 15.0295 51.234 14.5319C50.1866 14.0344 49.0605 13.7856 47.856 13.7856C46.6514 13.7856 45.5188 14.0344 44.4583 14.5319C43.3977 15.0295 42.4615 15.7169 41.6497 16.5941C40.8511 17.4583 40.2226 18.4599 39.7643 19.599C39.3191 20.7382 39.0966 21.9558 39.0966 23.2521C39.0966 24.5614 39.3257 25.7856 39.784 26.9247C40.2422 28.0638 40.8707 29.072 41.6694 29.9493C42.4812 30.8134 43.4108 31.4943 44.4583 31.9918C45.5188 32.4763 46.6514 32.7185 47.856 32.7185Z" fill="#ffff"/>
<path d="M67.8232 37V9.50411H72.6154V32.2079H84.0654V37H67.8232Z" fill="#ffff"/>
<path d="M101.345 37.5107C99.1456 37.5107 97.2144 36.9738 95.5515 35.9002C93.9018 34.8265 92.6186 33.3863 91.7021 31.5794C90.7856 29.7594 90.3273 27.7431 90.3273 25.5303V9.50411H95.1195V25.5303C95.1195 26.8396 95.3617 28.0442 95.8461 29.144C96.3437 30.2308 97.0507 31.1015 97.9672 31.7562C98.8969 32.3977 100.023 32.7185 101.345 32.7185C102.681 32.7185 103.807 32.3977 104.723 31.7562C105.64 31.1015 106.334 30.2308 106.805 29.144C107.29 28.0442 107.532 26.8396 107.532 25.5303V9.50411H112.324V25.5303C112.324 27.1931 112.062 28.7512 111.538 30.2046C111.015 31.6449 110.268 32.9149 109.299 34.0147C108.331 35.1146 107.172 35.9722 105.823 36.5876C104.488 37.203 102.995 37.5107 101.345 37.5107Z" fill="#ffff"/>
<path d="M123.061 37V9.50411H128.245L139.853 28.3388V9.50411H144.645V37H139.48L127.853 18.1653V37H123.061Z" fill="#ffff"/>
<path d="M176.612 9.50411V14.2963H168.206V37H163.414V14.2963H155.008V9.50411H176.612Z" fill="#ffff"/>
<rect x="186.17" y="10.6383" width="25.3682" height="4.90998" fill="#ffff"/>
<rect x="186.17" y="21.6858" width="25.3682" height="4.90998" fill="#ffff"/>
<rect x="186.17" y="32.7332" width="25.3682" height="4.90998" fill="#ffff"/>
<path d="M238.432 9.91653L248.409 37.4124H243.322L235.368 15.5139L227.394 37.4124H222.327L232.304 9.91653L238.432 9.91653Z" fill="#ffff"/>
</svg>
