<svg width="234" height="183" viewBox="0 0 234 183" fill="none" xmlns="http://www.w3.org/2000/svg">
<rect width="228" height="183" transform="translate(2)" fill="white"/>
<path d="M21.425 67L3.645 18H8.825L24.365 60.84L39.975 18H45.155L27.34 67H21.425ZM72.7684 67.91C69.455 67.91 66.34 67.2567 63.4234 65.95C60.5067 64.62 57.94 62.7883 55.7234 60.455C53.5067 58.1217 51.7684 55.4267 50.5084 52.37C49.2484 49.29 48.6184 46 48.6184 42.5C48.6184 39 49.2484 35.7217 50.5084 32.665C51.7684 29.585 53.5067 26.8783 55.7234 24.545C57.94 22.2117 60.5067 20.3917 63.4234 19.085C66.34 17.755 69.455 17.09 72.7684 17.09C76.105 17.09 79.2317 17.755 82.1484 19.085C85.065 20.3917 87.6317 22.2117 89.8484 24.545C92.065 26.8783 93.7917 29.585 95.0284 32.665C96.2884 35.7217 96.9184 39 96.9184 42.5C96.9184 46 96.2884 49.29 95.0284 52.37C93.7917 55.4267 92.065 58.1217 89.8484 60.455C87.6317 62.7883 85.065 64.62 82.1484 65.95C79.2317 67.2567 76.105 67.91 72.7684 67.91ZM72.7684 63.01C75.4517 63.01 77.9484 62.4733 80.2584 61.4C82.5917 60.3033 84.6334 58.81 86.3834 56.92C88.1567 55.03 89.5334 52.8483 90.5134 50.375C91.5167 47.9017 92.0184 45.2767 92.0184 42.5C92.0184 39.7 91.5167 37.0633 90.5134 34.59C89.51 32.0933 88.1217 29.9117 86.3484 28.045C84.5984 26.155 82.5567 24.6733 80.2234 23.6C77.9134 22.5267 75.4284 21.99 72.7684 21.99C70.085 21.99 67.5767 22.5383 65.2434 23.635C62.9334 24.7083 60.8917 26.19 59.1184 28.08C57.3684 29.97 55.9917 32.1517 54.9884 34.625C54.0084 37.0983 53.5184 39.7233 53.5184 42.5C53.5184 45.3233 54.02 47.9717 55.0234 50.445C56.0267 52.9183 57.4034 55.1 59.1534 56.99C60.9267 58.88 62.9684 60.3617 65.2784 61.435C67.6117 62.485 70.1084 63.01 72.7684 63.01ZM104.022 67V18H108.922V62.1H131.427V67H104.022ZM155.088 67.91C151.168 67.91 147.784 66.9533 144.938 65.04C142.091 63.1267 139.898 60.56 138.358 57.34C136.841 54.0967 136.083 50.5033 136.083 46.56V18H140.983V46.56C140.983 49.5467 141.531 52.2883 142.628 54.785C143.724 57.2817 145.323 59.2767 147.423 60.77C149.523 62.2633 152.078 63.01 155.088 63.01C158.168 63.01 160.746 62.2633 162.823 60.77C164.923 59.2533 166.509 57.2467 167.583 54.75C168.656 52.2533 169.193 49.5233 169.193 46.56V18H174.093V46.56C174.093 49.5233 173.649 52.3 172.763 54.89C171.899 57.4567 170.639 59.72 168.983 61.68C167.349 63.64 165.354 65.1683 162.998 66.265C160.664 67.3617 158.028 67.91 155.088 67.91ZM182.157 67V18H187.477L213.342 58.145V18H218.242V67H212.957L187.057 26.855V67H182.157Z" fill="#9EA4DA"/>
<path d="M57.95 84.5V97.31H35.48V158H22.67V97.31H0.2V84.5H57.95Z" fill="#9EA4DA"/>
<rect x="82" y="84" width="62" height="12" fill="#9EA4DA"/>
<rect x="82" y="115" width="62" height="12" fill="#9EA4DA"/>
<rect x="82" y="146" width="62" height="12" fill="#9EA4DA"/>
<path d="M207.077 84L233.747 157.5H220.15L198.887 98.9625L177.572 157.5H164.027L190.697 84H207.077Z" fill="#9EA4DA"/>
</svg>
