<svg width="234" height="159" viewBox="0 0 234 159" fill="none" xmlns="http://www.w3.org/2000/svg">
<path d="M21.425 67.5L3.645 18.5H8.825L24.365 61.34L39.975 18.5H45.155L27.34 67.5H21.425ZM72.7684 68.41C69.455 68.41 66.34 67.7567 63.4234 66.45C60.5067 65.12 57.94 63.2883 55.7234 60.955C53.5067 58.6217 51.7684 55.9267 50.5084 52.87C49.2484 49.79 48.6184 46.5 48.6184 43C48.6184 39.5 49.2484 36.2217 50.5084 33.165C51.7684 30.085 53.5067 27.3783 55.7234 25.045C57.94 22.7117 60.5067 20.8917 63.4234 19.585C66.34 18.255 69.455 17.59 72.7684 17.59C76.105 17.59 79.2317 18.255 82.1484 19.585C85.065 20.8917 87.6317 22.7117 89.8484 25.045C92.065 27.3783 93.7917 30.085 95.0284 33.165C96.2884 36.2217 96.9184 39.5 96.9184 43C96.9184 46.5 96.2884 49.79 95.0284 52.87C93.7917 55.9267 92.065 58.6217 89.8484 60.955C87.6317 63.2883 85.065 65.12 82.1484 66.45C79.2317 67.7567 76.105 68.41 72.7684 68.41ZM72.7684 63.51C75.4517 63.51 77.9484 62.9733 80.2584 61.9C82.5917 60.8033 84.6334 59.31 86.3834 57.42C88.1567 55.53 89.5334 53.3483 90.5134 50.875C91.5167 48.4017 92.0184 45.7767 92.0184 43C92.0184 40.2 91.5167 37.5633 90.5134 35.09C89.51 32.5933 88.1217 30.4117 86.3484 28.545C84.5984 26.655 82.5567 25.1733 80.2234 24.1C77.9134 23.0267 75.4284 22.49 72.7684 22.49C70.085 22.49 67.5767 23.0383 65.2434 24.135C62.9334 25.2083 60.8917 26.69 59.1184 28.58C57.3684 30.47 55.9917 32.6517 54.9884 35.125C54.0084 37.5983 53.5184 40.2233 53.5184 43C53.5184 45.8233 54.02 48.4717 55.0234 50.945C56.0267 53.4183 57.4034 55.6 59.1534 57.49C60.9267 59.38 62.9684 60.8617 65.2784 61.935C67.6117 62.985 70.1084 63.51 72.7684 63.51ZM104.022 67.5V18.5H108.922V62.6H131.427V67.5H104.022ZM155.088 68.41C151.168 68.41 147.784 67.4533 144.938 65.54C142.091 63.6267 139.898 61.06 138.358 57.84C136.841 54.5967 136.083 51.0033 136.083 47.06V18.5H140.983V47.06C140.983 50.0467 141.531 52.7883 142.628 55.285C143.724 57.7817 145.323 59.7767 147.423 61.27C149.523 62.7633 152.078 63.51 155.088 63.51C158.168 63.51 160.746 62.7633 162.823 61.27C164.923 59.7533 166.509 57.7467 167.583 55.25C168.656 52.7533 169.193 50.0233 169.193 47.06V18.5H174.093V47.06C174.093 50.0233 173.649 52.8 172.763 55.39C171.899 57.9567 170.639 60.22 168.983 62.18C167.349 64.14 165.354 65.6683 162.998 66.765C160.664 67.8617 158.028 68.41 155.088 68.41ZM182.157 67.5V18.5H187.477L213.342 58.645V18.5H218.242V67.5H212.957L187.057 27.355V67.5H182.157Z" fill="white"/>
<path d="M57.95 85V97.81H35.48V158.5H22.67V97.81H0.2V85H57.95Z" fill="white"/>
<rect x="82" y="84.5" width="62" height="12" fill="white"/>
<rect x="82" y="115.5" width="62" height="12" fill="white"/>
<rect x="82" y="146.5" width="62" height="12" fill="white"/>
<path d="M207.077 84.5L233.747 158H220.15L198.887 99.4625L177.572 158H164.027L190.697 84.5H207.077Z" fill="white"/>
</svg>
